#!OML:ASF H:\Dans Jumps\Project 1\Capture day 1\Session 1\subject.ASF
:FULLY-SPECIFIED
:DEGREES
163
root 0.737493 17.426 -14.3676 7.07488 -2.67637 -2.47653
lowerback 1.11315 -0.299519 1.15275
upperback 3.56491 -0.462204 2.09697
thorax 3.04599 -0.232616 1.50252
lowerneck -14.5715 0.37544 -2.1118
upperneck 22.3213 1.05953 -0.068013
head 9.43644 0.302766 0.460994
rclavicle -6.75868e-015 -1.98785e-014
rhumerus -24.8797 -14.3518 -78.3937
rradius 25.7687
rwrist 30.9095
rhand -19.39 -25.5051
rfingers 7.12502
rthumb 6.92871 -55.3717
lclavicle -6.75868e-015 -1.98785e-014
lhumerus -21.8797 -3.13262 86.8762
lradius 20.5965
lwrist 6.32707
lhand -24.4055 -3.748
lfingers 7.12502
lthumb 2.08569 26.2216
rfemur -16.8087 -2.0907 20.8478
rtibia 25.2106
rfoot -14.3749 -2.29576
rtoes 11.6149
lfemur -17.4097 8.64925 -17.8833
ltibia 25.7163
lfoot -12.6811 6.50393
ltoes -5.58751
164
root 0.739623 17.4148 -14.3954 7.18001 -2.71257 -2.46961
lowerback 1.40103 -0.293462 1.14986
upperback 3.64128 -0.448575 2.08978
thorax 2.96252 -0.226006 1.49826
lowerneck -14.5944 0.389271 -2.10157
upperneck 22.0774 1.08242 -0.10162
head 9.3555 0.313115 0.449582
rclavicle -3.08116e-015 2.18663e-014
rhumerus -24.8725 -14.2884 -78.3565
rradius 25.792
rwrist 30.8978
rhand -19.3732 -25.4817
rfingers 7.12502
rthumb 6.94488 -55.3477
lclavicle -3.08116e-015 2.18663e-014
lhumerus -21.8963 -3.10139 86.7959
lradius 20.6181
lwrist 6.462
lhand -24.5134 -3.73211
lfingers 7.12502
lthumb 1.98149 26.2384
rfemur -17.278 -2.05166 20.8431
rtibia 25.6754
rfoot -14.4814 -2.32457
rtoes 11.4735
lfemur -17.8863 8.76524 -17.9368
ltibia 26.1928
lfoot -12.7839 6.47422
ltoes -5.6761
165
root 0.742152 17.4029 -14.4236 7.29177 -2.74349 -2.44782
lowerback 1.70024 -0.292139 1.13573
upperback 3.71485 -0.440801 2.07771
thorax 2.87002 -0.222558 1.49522
lowerneck -14.6017 0.403159 -2.1091
upperneck 21.8181 1.10475 -0.117439
head 9.26634 0.323946 0.447081
rclavicle 3.77691e-015 -7.15625e-015
rhumerus -24.8676 -14.2408 -78.3172
rradius 25.8063
rwrist 30.8896
rhand -19.3315 -25.5187
rfingers 7.12502
rthumb 6.98518 -55.3834
lclavicle 3.77691e-015 -7.15625e-015
lhumerus -21.9298 -3.06817 86.7118
lradius 20.6339
lwrist 6.5872
lhand -24.6215 -3.72287
lfingers 7.12502
lthumb 1.87714 26.2486
rfemur -17.7729 -2.02931 20.821
rtibia 26.1721
rfoot -14.6014 -2.34575
rtoes 11.3242
lfemur -18.38 8.88138 -18.0114
ltibia 26.6824
lfoot -12.8968 6.44036
ltoes -5.75754
166
root 0.744663 17.39 -14.4532 7.42013 -2.7619 -2.42536
lowerback 2.00109 -0.290929 1.12551
upperback 3.78966 -0.433166 2.06106
thorax 2.77792 -0.218992 1.48527
lowerneck -14.6161 0.415472 -2.11039
upperneck 21.5454 1.12201 -0.12782
head 9.17415 0.333719 0.444758
rclavicle -5.56597e-015 9.14409e-015
rhumerus -24.8672 -14.217 -78.2727
rradius 25.823
rwrist 30.8689
rhand -19.2656 -25.5232
rfingers 7.12502
rthumb 7.04879 -55.3858
lclavicle -5.56597e-015 9.14409e-015
lhumerus -21.9629 -3.03415 86.6191
lradius 20.6443
lwrist 6.67993
lhand -24.7476 -3.72572
lfingers 7.12502
lthumb 1.75538 26.2468
rfemur -18.3083 -2.01098 20.8006
rtibia 26.7
rfoot -14.7274 -2.38002
rtoes 11.1629
lfemur -18.911 8.9972 -18.091
ltibia 27.1906
lfoot -13.0149 6.3969
ltoes -5.83858
167
root 0.747351 17.376 -14.4841 7.5514 -2.76767 -2.39678
lowerback 2.31748 -0.294445 1.11604
upperback 3.86803 -0.431529 2.03975
thorax 2.68098 -0.218332 1.47016
lowerneck -14.6216 0.426596 -2.11318
upperneck 21.2536 1.13667 -0.134865
head 9.07408 0.342779 0.443388
rclavicle -6.16232e-015 3.10104e-014
rhumerus -24.8742 -14.1998 -78.2282
rradius 25.841
rwrist 30.8398
rhand -19.206 -25.5333
rfingers 7.12502
rthumb 7.10629 -55.394
lclavicle -6.16232e-015 3.10104e-014
lhumerus -22.0048 -2.99326 86.5167
lradius 20.6596
lwrist 6.75733
lhand -24.8575 -3.69874
lfingers 7.12502
lthumb 1.64918 26.2746
rfemur -18.868 -2.00303 20.7744
rtibia 27.2585
rfoot -14.8609 -2.42085
rtoes 11.0023
lfemur -19.4639 9.10641 -18.1801
ltibia 27.7195
lfoot -13.14 6.35107
ltoes -5.92115
168
root 0.750063 17.3608 -14.5166 7.68853 -2.76424 -2.37392
lowerback 2.64569 -0.299607 1.11645
upperback 3.95378 -0.431992 2.01797
thorax 2.58514 -0.218452 1.44913
lowerneck -14.6321 0.436333 -2.11415
upperneck 20.9436 1.14855 -0.14069
head 8.96904 0.351039 0.441735
rclavicle 5.46658e-015 5.96354e-015
rhumerus -24.8914 -14.18 -78.1822
rradius 25.869
rwrist 30.8099
rhand -19.181 -25.5101
rfingers 7.12502
rthumb 7.13046 -55.37
lclavicle 5.46658e-015 5.96354e-015
lhumerus -22.051 -2.9473 86.4075
lradius 20.6823
lwrist 6.82814
lhand -24.9598 -3.65526
lfingers 7.12502
lthumb 1.5504 26.3189
rfemur -19.4565 -1.99916 20.7567
rtibia 27.8473
rfoot -14.9997 -2.47086
rtoes 10.8379
lfemur -20.0453 9.2121 -18.2649
ltibia 28.2734
lfoot -13.272 6.30187
ltoes -6.00319
